<svg xmlns="http://www.w3.org/2000/svg" viewBox="0 0 432 166.72"><defs><style>.cls-1{fill:#9d3602;}.cls-2{fill:#00192c;}.cls-3{fill:#fff;}</style></defs><title>logo</title><g id="Layer_2" data-name="Layer 2"><circle class="cls-1" cx="103.11" cy="83.36" r="44.19"/><path class="cls-1" d="M206.75,38.57h22.8l14.31,79.95H226l-2.46-16H213.16l-2.47,16H192.24Zm15.1,52.71-3.56-29.81-3.55,29.81Z"/><path class="cls-1" d="M249.48,92V65.12c0-16.78,6.12-27.73,24.77-27.73,18.46,0,24.09,10.06,24.09,23.39V66.5H279.09V58.9c0-3.55-.1-8-4.64-8s-4.93,4.54-4.93,8V98.09c0,3.55,1,8.09,5.52,8.09s5.73-4.54,5.73-8.09V87.62h-6.42V76.47h24v42.05h-13l-1-5.83c-2.07,4-5.72,7.11-12.53,7.11C254.81,119.8,249.48,108.25,249.48,92Z"/><path class="cls-1" d="M309.19,38.57h19.54v79.95H309.19Z"/><path class="cls-1" d="M340.38,38.57h19.54v66.92h17.77v13H340.38Z"/><path class="cls-1" d="M385.38,38.57h37.41V51.7H404.93V69.56h13.32V83.18H404.93v22.31h18v13H385.38Z"/><path class="cls-2" d="M432,142.58v-15H173.78A83.37,83.37,0,0,0,103.11,0c-.87,0-1.74,0-2.6,0H0V15H104v0a68.29,68.29,0,0,1,51.15,112.53h-12.7A59.21,59.21,0,0,0,103.12,24.14H0v15H32.45a83.36,83.36,0,0,0,70.66,127.59c.87,0,1.74,0,2.61,0H432v-15l-329.8,0A68.3,68.3,0,0,1,51.05,39.13h12.7a59.21,59.21,0,0,0,39.36,103.45H432ZM58.93,83.36a44.19,44.19,0,1,1,44.18,44.19A44.19,44.19,0,0,1,58.93,83.36Z"/><path class="cls-3" d="M98.67,55.71H96.16V53.27h8.3v2.44H102V69.5H98.67Z"/><path class="cls-3" d="M106.13,53.27h3.31v6.65h2.87V53.27h3.3V69.5h-3.3V62.31h-2.87V69.5h-3.31Z"/><path class="cls-3" d="M117.85,53.27h7.07v2.28h-3.79v4.31h2.93v2.31h-2.93v5.09H125V69.5h-7.11Z"/><path class="cls-3" d="M81.26,75.13h4.21c3.27,0,5.27,1,5.27,4.29,0,2-.44,3.33-2,4L91,91.37H87.6L85.75,84h-1.2v7.36H81.26Zm4.27,6.92c1.59,0,2.11-.78,2.11-2.37s-.42-2.32-2-2.32H84.55v4.69Z"/><path class="cls-3" d="M92.64,86.26V80.2c0-3.32,1.2-5.27,4.79-5.27s4.79,2,4.79,5.27v6.08c0,3.3-1.22,5.31-4.79,5.31S92.64,89.58,92.64,86.26Zm6.21.82V79.4c0-1.12-.18-2.1-1.42-2.1S96,78.28,96,79.4v7.68c0,1.1.14,2.14,1.42,2.14S98.85,88.18,98.85,87.08Z"/><path class="cls-3" d="M106.63,75.13h3.67l3.12,16.24h-3l-.6-3.57h-2.57l-.62,3.57h-3.11Zm2.83,10.63-1-6.54-1,6.54Z"/><path class="cls-3" d="M115.16,75.13h4c4.11,0,5.33,1.57,5.33,5.09v5.92c0,3.61-1.22,5.23-5.25,5.23h-4Zm4,13.93c1.8,0,1.9-.86,1.9-2.56V79.78c0-1.64-.18-2.32-1.92-2.32h-.7v11.6Z"/><path class="cls-3" d="M107.68,99.44h-2.51V97h8.3v2.44H111v13.79h-3.33Z"/><path class="cls-3" d="M114.86,108.12v-6.05c0-3.33,1.2-5.27,4.79-5.27s4.79,2,4.79,5.27v6.07c0,3.31-1.22,5.31-4.79,5.31S114.86,111.45,114.86,108.12Zm6.21.82v-7.67c0-1.13-.18-2.11-1.42-2.11s-1.42,1-1.42,2.11v7.67c0,1.11.14,2.15,1.42,2.15S121.07,110.05,121.07,108.94Z"/></g></svg>
